<svg xmlns="http://www.w3.org/2000/svg" viewBox="0 0 20 12" shape-rendering="crispEdges">
  <rect width="20" height="12" fill="#ffd6df"/>
  <rect y="8" width="20" height="4" fill="#f4b8c8"/>

  <rect x="3" y="3" width="6" height="1" fill="#3c2f6f"/>
  <rect x="2" y="4" width="8" height="1" fill="#3c2f6f"/>
  <rect x="2" y="5" width="8" height="3" fill="#eebf9f"/>
  <rect x="3" y="8" width="6" height="1" fill="#3c2f6f"/>
  <rect x="4" y="6" width="1" height="1" fill="#121212"/>
  <rect x="7" y="6" width="1" height="1" fill="#121212"/>
  <rect x="5" y="7" width="2" height="1" fill="#d57e7e"/>

  <rect x="11" y="3" width="6" height="1" fill="#5f4033"/>
  <rect x="10" y="4" width="8" height="1" fill="#5f4033"/>
  <rect x="10" y="5" width="8" height="3" fill="#f2c8a5"/>
  <rect x="11" y="8" width="6" height="1" fill="#5f4033"/>
  <rect x="12" y="6" width="1" height="1" fill="#121212"/>
  <rect x="15" y="6" width="1" height="1" fill="#121212"/>
  <rect x="13" y="7" width="2" height="1" fill="#d99172"/>

  <rect x="2" y="9" width="7" height="2" fill="#6b83d1"/>
  <rect x="11" y="9" width="7" height="2" fill="#ff9e74"/>
  <rect x="9" y="9" width="2" height="2" fill="#f28bab"/>
</svg>
