<svg xmlns="http://www.w3.org/2000/svg" viewBox="0 0 20 12" shape-rendering="crispEdges">
  <rect width="20" height="12" fill="#a8d9f0"/>
  <rect y="9" width="20" height="3" fill="#77b6d3"/>

  <rect x="5" y="2" width="10" height="1" fill="#3a2d22"/>
  <rect x="4" y="3" width="12" height="1" fill="#3a2d22"/>
  <rect x="4" y="4" width="12" height="4" fill="#3a2d22"/>
  <rect x="5" y="8" width="10" height="1" fill="#3a2d22"/>

  <rect x="5" y="3" width="10" height="5" fill="#d9a073"/>
  <rect x="4" y="2" width="2" height="2" fill="#d9a073"/>
  <rect x="14" y="2" width="2" height="2" fill="#d9a073"/>
  <rect x="5" y="3" width="1" height="1" fill="#efbf98"/>
  <rect x="14" y="3" width="1" height="1" fill="#efbf98"/>

  <rect x="8" y="5" width="1" height="1" fill="#1d1d1d"/>
  <rect x="11" y="5" width="1" height="1" fill="#1d1d1d"/>
  <rect x="9" y="6" width="2" height="1" fill="#1d1d1d"/>
  <rect x="8" y="7" width="4" height="1" fill="#f3d4bd"/>
  <rect x="9" y="7" width="2" height="1" fill="#7a4d3b"/>

  <rect x="7" y="9" width="2" height="2" fill="#d9a073"/>
  <rect x="11" y="9" width="2" height="2" fill="#d9a073"/>
  <rect x="7" y="10" width="2" height="1" fill="#3a2d22"/>
  <rect x="11" y="10" width="2" height="1" fill="#3a2d22"/>
</svg>
